<mxfile host="app.diagrams.net" modified="2023-07-03T12:29:29.663Z" agent="Mozilla/5.0 (Windows NT 10.0; Win64; x64) AppleWebKit/537.36 (KHTML, like Gecko) Chrome/114.0.0.0 Safari/537.36" version="21.5.2" etag="DBhK-sBoBaQFIr3rORvP" type="github">
  <diagram name="第 1 页" id="uLbLw0Rm3gzBT2WT8exU">
    <mxGraphModel>
      <root>
        <mxCell id="0" />
        <mxCell id="1" parent="0" />
      </root>
    </mxGraphModel>
  </diagram>
</mxfile>
